#!OML:ASF H:\Punching\Project 1\Capture day 1\Session 1\female.ASF
:FULLY-SPECIFIED
:DEGREES
32
root -0.288176 14.8966 -1.93488 9.45526 0.729114 0.553697
lowerback 3.02669 -2.24872 -0.700076
upperback -6.19276 -3.04454 0.50095
thorax -8.12111 -1.43732 1.22171
lowerneck -10.7989 -9.61271 -4.57995
upperneck 25.2459 -12.5252 -0.721255
head 10.0509 -6.33307 -0.994096
rclavicle -2.88455e-014 -1.18774e-014
rhumerus 36.1026 10.3653 -62.2228
rradius 65.5232
rwrist 0.0338851
rhand 33.27 -37.4375
rfingers 7.12502
rthumb 56.6203 -54.3355
lclavicle -2.88455e-014 -1.18774e-014
lhumerus 27.81 -5.52063 57.5379
lradius 79.3883
lwrist -10.8739
lhand 35.9513 26.6721
lfingers 7.12502
lthumb 58.9628 41.4971
rfemur -29.693 -7.23765 16.4236
rtibia 52.4578
rfoot -28.7561 -8.63471
rtoes -12.0045
lfemur -30.3712 1.9123 -17.3906
ltibia 50.584
lfoot -24.7588 7.33873
ltoes -12.9981
33
root -0.288663 14.898 -1.92754 9.43419 0.694218 0.501669
lowerback 2.9926 -2.24425 -0.676607
upperback -6.1942 -3.03593 0.51073
thorax -8.10351 -1.43447 1.21648
lowerneck -10.7779 -9.59046 -4.59121
upperneck 25.2997 -12.5031 -0.690777
head 10.0691 -6.32045 -0.980211
rclavicle 1.93846e-014 3.67752e-015
rhumerus 36.083 10.3808 -62.2389
rradius 65.5154
rwrist 0.0745345
rhand 33.3324 -37.4388
rfingers 7.12502
rthumb 56.6754 -54.2921
lclavicle 1.93846e-014 3.67752e-015
lhumerus 27.7849 -5.52086 57.4954
lradius 79.3797
lwrist -10.8581
lhand 36.0027 26.7233
lfingers 7.12502
lthumb 59.0072 41.5052
rfemur -29.6181 -7.19245 16.4715
rtibia 52.4033
rfoot -28.7569 -8.60242
rtoes -11.9494
lfemur -30.2949 1.9316 -17.328
ltibia 50.5546
lfoot -24.7645 7.34629
ltoes -13.0652
34
root -0.288711 14.8993 -1.9194 9.42036 0.676867 0.480778
lowerback 2.94358 -2.22857 -0.660696
upperback -6.19576 -3.01456 0.493171
thorax -8.07868 -1.42593 1.18487
lowerneck -10.7789 -9.57673 -4.58578
upperneck 25.3808 -12.4991 -0.651012
head 10.101 -6.31297 -0.970234
rclavicle -6.74004e-016 5.46658e-016
rhumerus 36.0235 10.3372 -62.253
rradius 65.515
rwrist 0.0921834
rhand 33.3995 -37.4058
rfingers 7.12502
rthumb 56.7345 -54.2108
lclavicle -6.74004e-016 5.46658e-016
lhumerus 27.8008 -5.55685 57.4819
lradius 79.3762
lwrist -10.8568
lhand 36.0387 26.722
lfingers 7.12502
lthumb 59.0383 41.4738
rfemur -29.5438 -7.1964 16.4913
rtibia 52.3482
rfoot -28.765 -8.59558
rtoes -11.9721
lfemur -30.2223 1.92184 -17.2968
ltibia 50.5278
lfoot -24.7967 7.35013
ltoes -13.0643
35
root -0.288875 14.9007 -1.91329 9.41353 0.644023 0.462104
lowerback 2.90703 -2.2236 -0.669351
upperback -6.19504 -3.0083 0.492231
thorax -8.05619 -1.42266 1.18635
lowerneck -10.7897 -9.55669 -4.57717
upperneck 25.4353 -12.4808 -0.627806
head 10.1234 -6.30058 -0.964062
rclavicle -3.71324e-015 -4.77083e-015
rhumerus 36.0278 10.3335 -62.258
rradius 65.5075
rwrist 0.0897123
rhand 33.4812 -37.4624
rfingers 7.12502
rthumb 56.8065 -54.2085
lclavicle -3.71324e-015 -4.77083e-015
lhumerus 27.8108 -5.54075 57.4454
lradius 79.376
lwrist -10.8152
lhand 36.1364 26.7383
lfingers 7.12502
lthumb 59.1227 41.4077
rfemur -29.4944 -7.1445 16.5042
rtibia 52.302
rfoot -28.7584 -8.5997
rtoes -11.9761
lfemur -30.1647 1.92702 -17.2712
ltibia 50.5032
lfoot -24.8098 7.36348
ltoes -13.0505
36
root -0.288927 14.9023 -1.90608 9.40375 0.638064 0.447196
lowerback 2.86389 -2.21577 -0.656699
upperback -6.19745 -2.99779 0.474475
thorax -8.03534 -1.41921 1.15775
lowerneck -10.8155 -9.54581 -4.54897
upperneck 25.5289 -12.474 -0.629569
head 10.1598 -6.29398 -0.972992
rclavicle 1.37658e-014 -1.12313e-014
rhumerus 35.9859 10.3045 -62.2646
rradius 65.5159
rwrist 0.0660402
rhand 33.5882 -37.5135
rfingers 7.12502
rthumb 56.9008 -54.1818
lclavicle 1.37658e-014 -1.12313e-014
lhumerus 27.8302 -5.56525 57.3919
lradius 79.3629
lwrist -10.7733
lhand 36.142 26.7286
lfingers 7.12502
lthumb 59.1275 41.3933
rfemur -29.4291 -7.1288 16.519
rtibia 52.2547
rfoot -28.7581 -8.6201
rtoes -11.9886
lfemur -30.0988 1.8977 -17.2475
ltibia 50.4727
lfoot -24.8246 7.38197
ltoes -13.0745
37
root -0.289369 14.9035 -1.90012 9.40212 0.615848 0.431142
lowerback 2.87434 -2.21133 -0.669287
upperback -6.239 -2.99312 0.474652
thorax -8.08599 -1.41546 1.16628
lowerneck -10.7723 -9.51828 -4.5224
upperneck 25.5869 -12.442 -0.643781
head 10.1689 -6.27892 -0.977337
rclavicle -3.08753e-014 -6.36111e-015
rhumerus 35.9076 10.3362 -62.2581
rradius 65.5394
rwrist 0.0020185
rhand 33.5995 -37.5564
rfingers 7.12502
rthumb 56.9107 -54.2165
lclavicle -3.08753e-014 -6.36111e-015
lhumerus 27.7707 -5.5867 57.3748
lradius 79.4024
lwrist -10.7103
lhand 36.2031 26.7678
lfingers 7.12502
lthumb 59.1803 41.3807
rfemur -29.3802 -7.13179 16.5424
rtibia 52.2308
rfoot -28.7868 -8.62675
rtoes -12.0376
lfemur -30.0611 1.88164 -17.223
ltibia 50.4509
lfoot -24.8288 7.40553
ltoes -13.0957
38
root -0.289209 14.9056 -1.8928 9.41333 0.594621 0.446
lowerback 2.82435 -2.21229 -0.704439
upperback -6.26436 -2.99697 0.47061
thorax -8.08253 -1.41537 1.18043
lowerneck -10.7399 -9.49297 -4.51418
upperneck 25.64 -12.4077 -0.660664
head 10.1795 -6.26453 -0.98001
rclavicle -2.60843e-014 -9.54166e-015
rhumerus 35.8695 10.361 -62.258
rradius 65.5422
rwrist -0.0423801
rhand 33.7313 -37.6275
rfingers 7.12502
rthumb 57.0266 -54.1913
lclavicle -2.60843e-014 -9.54166e-015
lhumerus 27.7194 -5.57232 57.3566
lradius 79.4205
lwrist -10.6529
lhand 36.2476 26.7714
lfingers 7.12502
lthumb 59.2186 41.3467
rfemur -29.3547 -7.12409 16.5095
rtibia 52.1969
rfoot -28.8012 -8.56271
rtoes -11.915
lfemur -30.0135 1.86083 -17.2424
ltibia 50.4235
lfoot -24.8418 7.45181
ltoes -13.1795
39
root -0.290145 14.9048 -1.8874 9.41349 0.562458 0.43119
lowerback 2.8113 -2.20681 -0.718181
upperback -6.27823 -2.99092 0.465959
thorax -8.08961 -1.41162 1.18245
lowerneck -10.7328 -9.47019 -4.49525
upperneck 25.6672 -12.3864 -0.641488
head 10.1875 -6.25081 -0.97425
rclavicle 5.04727e-015 1.39398e-014
rhumerus 35.8348 10.3676 -62.2658
rradius 65.5707
rwrist -0.0892847
rhand 33.8178 -37.7075
rfingers 7.12502
rthumb 57.1027 -54.2077
lclavicle 5.04727e-015 1.39398e-014
lhumerus 27.6955 -5.5575 57.3081
lradius 79.4633
lwrist -10.5954
lhand 36.2038 26.7399
lfingers 7.12502
lthumb 59.1809 41.3523
rfemur -29.3335 -7.09337 16.5269
rtibia 52.1893
rfoot -28.8099 -8.55619
rtoes -11.9088
lfemur -29.9749 1.85861 -17.2184
ltibia 50.4081
lfoot -24.8655 7.46788
ltoes -13.1508
40
root -0.290266 14.9059 -1.88095 9.42442 0.54042 0.43351
lowerback 2.79372 -2.21242 -0.746164
upperback -6.30603 -3.00041 0.467636
thorax -8.10775 -1.41425 1.20074
lowerneck -10.7673 -9.44682 -4.477
upperneck 25.7498 -12.3519 -0.670032
head 10.22 -6.23548 -0.987353
rclavicle -2.15386e-014 -1.41634e-014
rhumerus 35.8045 10.4088 -62.2572
rradius 65.5951
rwrist -0.147135
rhand 33.8702 -37.7189
rfingers 7.12502
rthumb 57.1488 -54.1803
lclavicle -2.15386e-014 -1.41634e-014
lhumerus 27.6029 -5.52402 57.2817
lradius 79.4793
lwrist -10.5672
lhand 36.2409 26.6598
lfingers 7.12502
lthumb 59.2129 41.2406
rfemur -29.31 -7.09456 16.5204
rtibia 52.1709
rfoot -28.8295 -8.5354
rtoes -11.9273
lfemur -29.9367 1.84326 -17.2226
ltibia 50.3893
lfoot -24.866 7.51838
ltoes -13.1944
41
root -0.290614 14.9072 -1.8746 9.41812 0.515062 0.459811
lowerback 2.77942 -2.20652 -0.793116
upperback -6.30919 -2.99691 0.449545
thorax -8.10148 -1.41031 1.207
lowerneck -10.8082 -9.43195 -4.44759
upperneck 25.8082 -12.3357 -0.677858
head 10.246 -6.22517 -0.996895
rclavicle -6.57698e-015 2.08724e-015
rhumerus 35.7841 10.403 -62.2438
rradius 65.6208
rwrist -0.205045
rhand 33.8994 -37.7118
rfingers 7.12502
rthumb 57.1744 -54.1516
lclavicle -6.57698e-015 2.08724e-015
lhumerus 27.6217 -5.52487 57.2214
lradius 79.5293
lwrist -10.552
lhand 36.3804 26.7523
lfingers 7.12502
lthumb 59.3331 41.2141
rfemur -29.2642 -7.11214 16.4993
rtibia 52.1653
rfoot -28.8543 -8.57214
rtoes -12.0857
lfemur -29.8813 1.82882 -17.2531
ltibia 50.3695
lfoot -24.883 7.558
ltoes -13.2052
42
root -0.291593 14.9073 -1.87024 9.4275 0.484718 0.423992
lowerback 2.78326 -2.19572 -0.780805
upperback -6.34268 -2.98183 0.450222
thorax -8.14102 -1.4031 1.20064
lowerneck -10.7726 -9.41517 -4.44894
upperneck 25.8442 -12.3191 -0.663563
head 10.2531 -6.21643 -0.989033
rclavicle 3.7978e-014 1.42876e-014
rhumerus 35.7114 10.4122 -62.246
rradius 65.6657
rwrist -0.243402
rhand 33.9342 -37.7342
rfingers 7.12502
rthumb 57.2049 -54.1482
lclavicle 3.7978e-014 1.42876e-014
lhumerus 27.5921 -5.53343 57.1892
lradius 79.6196
lwrist -10.4684
lhand 36.4055 26.8927
lfingers 7.12502
lthumb 59.3547 41.333
rfemur -29.2594 -7.07006 16.543
rtibia 52.1587
rfoot -28.8602 -8.57684
rtoes -12.1424
lfemur -29.86 1.82821 -17.2073
ltibia 50.3516
lfoot -24.8998 7.5904
ltoes -13.2156
43
root -0.292353 14.9076 -1.86404 9.42561 0.445391 0.443455
lowerback 2.77016 -2.187 -0.830958
upperback -6.35697 -2.97414 0.442688
thorax -8.14692 -1.39634 1.21975
lowerneck -10.6996 -9.39677 -4.47967
upperneck 25.7937 -12.3056 -0.59777
head 10.2275 -6.20717 -0.954357
rclavicle -7.78056e-016 -1.39149e-015
rhumerus 35.6804 10.4194 -62.2433
rradius 65.6915
rwrist -0.285109
rhand 34.0096 -37.7865
rfingers 7.12502
rthumb 57.2711 -54.1444
lclavicle -7.78056e-016 -1.39149e-015
lhumerus 27.5778 -5.51294 57.1649
lradius 79.6621
lwrist -10.4283
lhand 36.4676 26.9185
lfingers 7.12502
lthumb 59.4081 41.3055
rfemur -29.2385 -7.03369 16.5014
rtibia 52.1575
rfoot -28.9095 -8.47369
rtoes -11.8416
lfemur -29.8107 1.83317 -17.2304
ltibia 50.3336
lfoot -24.9073 7.63985
ltoes -13.3139
44
root -0.29327 14.9081 -1.85825 9.41787 0.423941 0.474303
lowerback 2.75573 -2.18567 -0.884298
upperback -6.35952 -2.97695 0.428369
thorax -8.13926 -1.39497 1.23411
lowerneck -10.7104 -9.38253 -4.48369
upperneck 25.8183 -12.2876 -0.588758
head 10.2392 -6.19792 -0.949963
rclavicle 3.34564e-014 1.3418e-014
rhumerus 35.6538 10.4271 -62.2356
rradius 65.7199
rwrist -0.317624
rhand 33.9463 -37.7432
rfingers 7.12502
rthumb 57.2156 -54.1482
lclavicle 3.34564e-014 1.3418e-014
lhumerus 27.5539 -5.47636 57.1467
lradius 79.6968
lwrist -10.3832
lhand 36.4989 26.9416
lfingers 7.12502
lthumb 59.4351 41.3016
rfemur -29.2136 -7.10266 16.4872
rtibia 52.1611
rfoot -28.9091 -8.51829
rtoes -12.1514
lfemur -29.7626 1.81483 -17.2595
ltibia 50.3239
lfoot -24.936 7.668
ltoes -13.3546
45
root -0.293998 14.9071 -1.85406 9.43059 0.401153 0.459511
lowerback 2.75077 -2.18215 -0.882359
upperback -6.38033 -2.97271 0.422078
thorax -8.15949 -1.39296 1.22644
lowerneck -10.7128 -9.35895 -4.47672
upperneck 25.8529 -12.2593 -0.580793
head 10.2517 -6.18313 -0.946128
rclavicle -2.05998e-014 -1.73937e-016
rhumerus 35.6193 10.4297 -62.2526
rradius 65.7441
rwrist -0.338574
rhand 33.9424 -37.7825
rfingers 7.12502
rthumb 57.2121 -54.1905
lclavicle -2.05998e-014 -1.73937e-016
lhumerus 27.5208 -5.45811 57.1265
lradius 79.7215
lwrist -10.357
lhand 36.5367 26.9534
lfingers 7.12502
lthumb 59.4676 41.2807
rfemur -29.216 -7.10749 16.5083
rtibia 52.1708
rfoot -28.9131 -8.48989
rtoes -12.1668
lfemur -29.7502 1.81598 -17.2416
ltibia 50.3207
lfoot -24.9532 7.69013
ltoes -13.3424
